<svg xmlns="http://www.w3.org/2000/svg" viewBox="0 0 160 56" role="img" aria-label="CLIP">
  <rect width="160" height="56" rx="14" fill="#FF6B00"/>
  <path fill="#fff" d="M36.7 37.8c-6 0-10.4-4.1-10.4-9.8s4.4-9.8 10.4-9.8c3.7 0 6.7 1.5 8.4 4.2l-4.4 3.1c-.9-1.4-2.2-2.1-3.8-2.1-2.6 0-4.4 1.9-4.4 4.6s1.8 4.6 4.4 4.6c1.6 0 2.9-.7 3.8-2.1l4.4 3.1c-1.7 2.7-4.7 4.2-8.4 4.2Zm11.4-.4V18.6h6.1v13.6h8.4v5.2H48.1Zm17.1 0V18.6h6.1v18.8h-6.1Zm10.8 0V18.6h9.1c5.1 0 8.2 2.6 8.2 7s-3.1 7.1-8.2 7.1h-3v4.7H76Zm6.1-9.5h2.6c1.5 0 2.4-.8 2.4-2.2s-.9-2.2-2.4-2.2h-2.6v4.4Zm22.3 9.9c-2 0-3.5-.5-4.7-1.6-1.2-1-1.8-2.4-1.8-4.2 0-1.9.7-3.3 2.2-4.4 1.5-1 3.5-1.5 6.1-1.5h2.7v-.2c0-1.5-1-2.3-3.1-2.3-1.8 0-3.5.6-5.2 1.8l-2.1-4.1c1.2-.8 2.5-1.4 4.1-1.8 1.6-.5 3.2-.7 4.8-.7 4.8 0 7.2 2.4 7.2 7.1v11.5h-5.7v-2c-.9 1.6-2.4 2.4-4.5 2.4Zm1.8-4c.8 0 1.5-.3 2-.8.5-.5.8-1.2.8-2v-1h-2.1c-2.1 0-3.1.6-3.1 1.9 0 .6.2 1 .6 1.4.4.3 1 .5 1.8.5Z"/>
  <circle cx="126.7" cy="20.8" r="3.1" fill="#fff"/>
  <path fill="#fff" d="M123.7 37.4V25.2h6.1v12.2h-6.1Z"/>
</svg>
