<svg xmlns="http://www.w3.org/2000/svg" xmlns:xlink="http://www.w3.org/1999/xlink" width="50" zoomAndPan="magnify" viewBox="0 0 37.5 37.499999" height="50" preserveAspectRatio="xMidYMid meet" version="1.0"><defs><clipPath id="1a62708a93"><path d="M 4.46875 3.960938 L 32.59375 3.960938 L 32.59375 34.304688 L 4.46875 34.304688 Z M 4.46875 3.960938 " clip-rule="nonzero"/></clipPath><clipPath id="a73f38ca15"><path d="M 8.511719 6.144531 L 11.398438 6.144531 L 11.398438 9.03125 L 8.511719 9.03125 Z M 8.511719 6.144531 " clip-rule="nonzero"/></clipPath><clipPath id="691ef3bfae"><path d="M 9.953125 6.144531 C 9.15625 6.144531 8.511719 6.789062 8.511719 7.585938 C 8.511719 8.382812 9.15625 9.03125 9.953125 9.03125 C 10.75 9.03125 11.398438 8.382812 11.398438 7.585938 C 11.398438 6.789062 10.75 6.144531 9.953125 6.144531 Z M 9.953125 6.144531 " clip-rule="nonzero"/></clipPath><clipPath id="5e586cb9b1"><path d="M 0.511719 0.144531 L 3.398438 0.144531 L 3.398438 3.03125 L 0.511719 3.03125 Z M 0.511719 0.144531 " clip-rule="nonzero"/></clipPath><clipPath id="a4cfac0f93"><path d="M 1.953125 0.144531 C 1.15625 0.144531 0.511719 0.789062 0.511719 1.585938 C 0.511719 2.382812 1.15625 3.03125 1.953125 3.03125 C 2.75 3.03125 3.398438 2.382812 3.398438 1.585938 C 3.398438 0.789062 2.75 0.144531 1.953125 0.144531 Z M 1.953125 0.144531 " clip-rule="nonzero"/></clipPath><clipPath id="523e7f5175"><rect x="0" width="4" y="0" height="4"/></clipPath></defs><g clip-path="url(#1a62708a93)"><path fill="#000000" d="M 24.742188 34.238281 L 32.527344 34.238281 L 25.128906 23.425781 C 26.421875 22.953125 27.550781 22.296875 28.523438 21.445312 C 29.492188 20.601562 30.25 19.5625 30.789062 18.332031 C 31.335938 17.097656 31.609375 15.671875 31.617188 14.042969 L 31.617188 13.957031 C 31.617188 12.523438 31.394531 11.226562 30.953125 10.058594 C 30.515625 8.890625 29.867188 7.886719 29.023438 7.039062 C 28.027344 6.035156 26.789062 5.277344 25.3125 4.753906 C 23.835938 4.230469 22.125 3.96875 20.199219 3.96875 L 4.46875 3.96875 L 13.023438 16.738281 L 13.023438 9.976562 L 19.636719 9.976562 C 20.726562 9.976562 21.65625 10.144531 22.433594 10.46875 C 23.214844 10.792969 23.820312 11.269531 24.238281 11.910156 C 24.65625 12.550781 24.863281 13.351562 24.871094 14.304688 L 24.871094 14.390625 C 24.871094 15.246094 24.667969 15.996094 24.265625 16.632812 C 23.867188 17.273438 23.292969 17.769531 22.535156 18.128906 C 21.773438 18.484375 20.847656 18.664062 19.769531 18.671875 L 14.316406 18.671875 Z M 24.742188 34.238281 " fill-opacity="1" fill-rule="nonzero"/></g><g clip-path="url(#a73f38ca15)"><g clip-path="url(#691ef3bfae)"><g transform="matrix(1, 0, 0, 1, 8, 6)"><g clip-path="url(#523e7f5175)"><g clip-path="url(#5e586cb9b1)"><g clip-path="url(#a4cfac0f93)"><path fill="#000000" d="M 0.511719 0.144531 L 3.398438 0.144531 L 3.398438 3.03125 L 0.511719 3.03125 Z M 0.511719 0.144531 " fill-opacity="1" fill-rule="nonzero"/></g></g></g></g></g></g></svg>
