<svg xmlns="http://www.w3.org/2000/svg" viewBox="0 0 1024 1024" role="img" aria-label="Ristak Chat Business">
  <rect width="1024" height="1024" rx="224" fill="#111111"/>
  <path
    fill="#ffffff"
    d="M512 138c-206 0-374 151-374 337 0 75 28 145 75 201l-45 165 171-66c53 24 113 37 176 37 206 0 374-151 374-337S718 138 512 138Zm0 83c160 0 290 111 290 254S672 729 512 729c-52 0-102-12-145-34l-18-9-73 28 19-70-17-19c-37-42-57-91-57-145 0-148 131-259 291-259Z"
  />
  <path
    fill="#ffffff"
    d="M370 363c0-35 28-63 63-63h95c35 0 63 28 63 63v25h24c36 0 65 29 65 65v130c0 36-29 65-65 65H407c-36 0-65-29-65-65V453c0-36 29-65 65-65h23v-25Zm74 25h102v-25c0-9-8-17-17-17h-85c-10 0-18 8-18 17v25Zm-18 92v95h62c37 0 61-19 61-49 0-18-10-31-27-38 12-7 19-19 19-35 0-27-22-45-56-45h-59Zm47 37h33c13 0 21 7 21 18 0 12-8 19-21 19h-33v-37Zm0 68h40c14 0 23 7 23 20s-9 21-23 21h-40v-41Z"
  />
</svg>
